<svg xmlns:xlink="http://www.w3.org/1999/xlink" xmlns="http://www.w3.org/2000/svg" viewBox="0 0 16 16" x="134.13333333333333" width="16" height="16" opacity="1" y="84" style="" fill="#E35C47"><path d="M5 1v2.25h8.75V7.1c.77.84 1.25 1.94 1.25 3.17 0 2.61-2.12 4.73-4.73 4.73a4.74 4.74 0 0 1-4.73-4.73c0-2.6 2.13-4.72 4.73-4.72.71 0 1.38.17 1.98.45V4.75H5V7H4L1 4l3-3h1zm5.46 5.73h-.19c-.91 0-1.73.35-2.36.91l.62.37-.45 1.67-1.36.48v.12c0 .45.09.88.24 1.28l.63-.32 1.05 1.17-.17.93c.53.31 1.14.49 1.8.49l.01-.01a3.55 3.55 0 0 0 3.55-3.55c0-1.02-.44-1.94-1.13-2.59l-.59.55-1.84-.78.19-.72zm1.5 2.75.94 1.72-1.4 1.55-1.4-.55v-2.04l1.86-.68z" fill="#E35C47"></path></svg>