<svg xmlns:xlink="http://www.w3.org/1999/xlink" xmlns="http://www.w3.org/2000/svg" viewBox="0 0 16 16" x="303.59999999999997" width="16" height="16" opacity="1" y="84" style="" fill="#7A84FF"><path d="M8.07 5.45c2.63 0 4.77 2.14 4.77 4.77 0 2.63-2.14 4.77-4.77 4.77-2.63 0-4.77-2.14-4.77-4.77 0-2.63 2.14-4.77 4.77-4.77zm.19 1.2h-.2c-.92 0-1.75.35-2.39.92l.63.37-.45 1.69-1.37.49v.12c0 .45.08.89.24 1.29l.64-.33 1.06 1.18-.17.94c.54.32 1.16.5 1.82.5 1.98 0 3.59-1.61 3.59-3.59 0-1.04-.44-1.96-1.14-2.62l-.6.55-1.86-.78.2-.73zm1.52 2.78.95 1.73-1.42 1.56-1.41-.55v-2.06l1.88-.68zM15 1v6.75h-1.5V2.5h-11v5.25H1V1h14z" fill="#7A84FF"></path></svg>