<svg xmlns:xlink="http://www.w3.org/1999/xlink" xmlns="http://www.w3.org/2000/svg" width="120" height="180" viewBox="0 0 120 180"><g fill="none" fill-rule="evenodd"><rect class="fill_graphics.terrain.football" width="120" height="180" rx="4" fill="#446C46"></rect><path class="stk_surface.s1" stroke-width="2px" stroke-linejoin="round" d="M4 4h112v86H4z" stroke="#171C1F" fill="none"></path><path d="M72 90c0-6.627-5.373-12-12-12s-12 5.373-12 12M31 4h58v26H31zM50 30c.156.28.322.555.499.82 2.084 3.13 5.562 5.18 9.5 5.18 3.942 0 7.422-2.052 9.505-5.184.176-.264.34-.537.496-.816" class="stk_surface.s1" stroke-width="2px" stroke-linejoin="round" stroke="#171C1F" fill="none"></path><path class="stk_surface.s1" stroke-width="2px" stroke-linejoin="round" d="M46 4h28v8H46z" stroke="#171C1F" fill="none"></path><circle cx="1" cy="1" r="1" transform="translate(59 22)" class="fill_surface.s1" fill="#171C1F"></circle><path d="M4 8a4 4 0 0 0 4-4M112 4a4 4 0 0 0 4 4" class="stk_surface.s1" stroke-width="2px" stroke-linejoin="round" stroke="#171C1F" fill="none"></path><g fill="none"><path class="stk_surface.s1" stroke-width="2px" stroke-linejoin="round" d="M4 176h112V90H4z" stroke="#171C1F" fill="none"></path><path d="M72 90c0 6.627-5.373 12-12 12s-12-5.373-12-12M31 176h58v-26H31zM50 150c.156-.28.322-.555.499-.82 2.084-3.13 5.562-5.18 9.5-5.18 3.942 0 7.422 2.052 9.505 5.184.176.264.34.537.496.816" class="stk_surface.s1" stroke-width="2px" stroke-linejoin="round" stroke="#171C1F" fill="none"></path><path class="stk_surface.s1" stroke-width="2px" stroke-linejoin="round" d="M46 176h28v-8H46z" stroke="#171C1F" fill="none"></path><circle cx="1" cy="1" r="1" transform="matrix(1 0 0 -1 59 158)" class="fill_surface.s1" fill="#171C1F"></circle><path d="M4 172a4 4 0 0 1 4 4M112 176a4 4 0 0 1 4-4" class="stk_surface.s1" stroke-width="2px" stroke-linejoin="round" stroke="#171C1F" fill="none"></path></g></g><g style="top: 0px; left: 0px; background: red;" width="100%" height="100%"><g><circle cx="60" cy="20" r="12" class="fill_surface.s1" fill="#171C1F"></circle><text class="textStyle_assistive.default" style="" y="20" x="60" dy="4" text-anchor="middle" fill="#E73B3B">ST</text></g></g></svg>