<svg xmlns:xlink="http://www.w3.org/1999/xlink" xmlns="http://www.w3.org/2000/svg" width="16" height="16" viewBox="0 0 16 16" fill="var(--primary-default)" style="min-width: 16px; display: inline-block;" class="SvgWrapper fyGiev"><title fill="#7A84FF">VAR decisão</title><path d="M14.667 2.667V12h-3.334v1.333H4.667V12H1.333V2.667h13.334zm-11.84 2.42h-.734c-.046 0-.06.02-.046.06L3.38 9.52c.013.047.04.067.08.067h1.22c.04 0 .067-.027.08-.067L6.1 5.147c.013-.04-.007-.06-.047-.06h-.72c-.04 0-.066.02-.08.06L4.167 8.853H4L2.907 5.147c-.014-.04-.04-.06-.08-.06zm5.733 0H7.373c-.04 0-.066.02-.08.06L5.88 9.52c-.007.047.007.067.047.067h.713c.04 0 .067-.027.08-.067l.307-.973H8.88l.307.973c.013.047.04.067.08.067h.726c.047 0 .06-.027.047-.067l-1.4-4.373c-.013-.04-.04-.06-.08-.06zm3.893 0H10.58c-.047 0-.067.02-.067.06V9.52c0 .047.027.067.067.067h.687c.046 0 .066-.027.066-.067V7.787h.994L13 9.527c.013.04.04.06.087.06h.72c.04 0 .06-.02.04-.06l-.734-1.84c.28-.14.487-.3.614-.487.153-.22.226-.493.226-.813 0-.28-.066-.514-.193-.707-.127-.193-.3-.34-.527-.44a1.915 1.915 0 0 0-.78-.153zm-4.426.786.606 1.914H7.26l.607-1.914h.16zm4.353-.026c.24 0 .42.046.547.14.133.093.193.226.193.406 0 .207-.053.36-.167.474-.113.113-.273.166-.48.166h-1.146V5.847z" fill="#7A84FF" fill-rule="evenodd" style="min-width: 16px; display: inline-block;"></path></svg>